sfk_cyclingleg_states
version=1
nRows=4
nColumns=53
inDegrees=yes

# SIMM Motion File Header:
name sfk_cyclingleg_states
datacolumns 53
datarows 4
otherdata 1
range 0.25051577 0.25237619
endheader
time	/jointset/bb/crank_angle/value	/jointset/bb/crank_angle/speed	/jointset/spindle/pedal_angle_r/value	/jointset/spindle/pedal_angle_r/speed	/jointset/ground_pelvis/pelvis_tilt/value	/jointset/ground_pelvis/pelvis_tilt/speed	/jointset/ground_pelvis/pelvis_list/value	/jointset/ground_pelvis/pelvis_list/speed	/jointset/ground_pelvis/pelvis_rotation/value	/jointset/ground_pelvis/pelvis_rotation/speed	/jointset/ground_pelvis/pelvis_tx/value	/jointset/ground_pelvis/pelvis_tx/speed	/jointset/ground_pelvis/pelvis_ty/value	/jointset/ground_pelvis/pelvis_ty/speed	/jointset/ground_pelvis/pelvis_tz/value	/jointset/ground_pelvis/pelvis_tz/speed	/jointset/hip_r/hip_angle_r/value	/jointset/hip_r/hip_angle_r/speed	/jointset/hip_r/hip_adduction_r/value	/jointset/hip_r/hip_adduction_r/speed	/jointset/hip_r/hip_rotation_r/value	/jointset/hip_r/hip_rotation_r/speed	/jointset/knee_r/knee_angle_r/value	/jointset/knee_r/knee_angle_r/speed	/jointset/knee_r/tib_tx_r/value	/jointset/knee_r/tib_tx_r/speed	/jointset/knee_r/tib_ty_r/value	/jointset/knee_r/tib_ty_r/speed	/jointset/tib_pat_r/pat_angle_r/value	/jointset/tib_pat_r/pat_angle_r/speed	/jointset/tib_pat_r/pat_tx_r/value	/jointset/tib_pat_r/pat_tx_r/speed	/jointset/tib_pat_r/pat_ty_r/value	/jointset/tib_pat_r/pat_ty_r/speed	/jointset/ankle_r/ankle_angle_r/value	/jointset/ankle_r/ankle_angle_r/speed	/jointset/subtalar_r/subtalar_angle_r/value	/jointset/subtalar_r/subtalar_angle_r/speed	/jointset/mtp_r/mtp_angle_r/value	/jointset/mtp_r/mtp_angle_r/speed	/forceset/bifemlh_r/activation	/forceset/bifemlh_r/fiber_length	/forceset/bifemsh_r/activation	/forceset/bifemsh_r/fiber_length	/forceset/glut_max2_r/activation	/forceset/glut_max2_r/fiber_length	/forceset/vas_int_r/activation	/forceset/vas_int_r/fiber_length	/forceset/med_gas_r/activation	/forceset/med_gas_r/fiber_length	/forceset/tib_ant_r/activation	/forceset/tib_ant_r/fiber_length
      0.25051577	   -130.41717747	   -480.13863232	    153.85211738	    588.26837493	     -0.00000000	     -0.00000000	      0.00000000	     -0.00000000	      0.00000000	      0.00000000	     -0.00000000	     -0.00000000	      0.00000000	      0.00000000	      0.00000000	      0.00000000	     45.19875287	   -236.54749219	      4.35871924	     -0.94904497	      2.06866616	     28.97483950	    -45.25674072	    286.69622415	      0.00323891	     -0.03919733	     -0.47178279	      0.07404766	     16.83010600	    -17.19961101	      0.04695802	      0.07601501	     -0.02348858	     -0.01171582	     23.89914904	     58.00518199	      0.00000000	     -0.00000000	      0.00000000	     -0.00000000	     -0.00681180	      0.13226586	     -0.00681180	      0.17466734	     -0.00681180	      0.13495131	     -0.00681180	      0.11820225	      0.05000000	      0.10000000	      0.05000000	      0.10000000
      0.25139790	   -130.84072386	   -480.13863232	    154.37118761	    588.58385228	     -0.00000000	     -0.00000000	      0.00000000	      0.00000000	      0.00000000	      0.00000000	     -0.00000000	     -0.00000000	      0.00000000	      0.00000000	      0.00000000	      0.00000000	     44.99014318	   -236.41717263	      4.35787674	     -0.96105569	      2.09426953	     29.07405726	    -45.00410747	    286.07936455	      0.00320428	     -0.03931043	     -0.47171766	      0.07361039	     16.81484097	    -17.40962685	      0.04702493	      0.07568878	     -0.02349892	     -0.01172564	     23.95067594	     58.81920194	      0.00000000	      0.00000000	      0.00000000	      0.00000000	     -0.00692537	      0.13219824	     -0.00692537	      0.17475676	     -0.00692537	      0.13479985	     -0.00692537	      0.11799393	      0.05000000	      0.10000000	      0.05000000	      0.10000000
      0.25188705	   -131.07558050	   -480.13863232	    154.65913250	    588.75972549	     -0.00000000	     -0.00000000	      0.00000000	      0.00000000	      0.00000000	      0.00000000	     -0.00000000	     -0.00000000	      0.00000000	      0.00000000	      0.00000000	      0.00000000	     44.87451984	   -236.34079590	      4.35740504	     -0.96760841	      2.10850445	     29.12947214	    -44.86425854	    285.73151549	      0.00318503	     -0.03936971	     -0.47168172	      0.07336656	     16.80629674	    -17.52580551	      0.04706191	      0.07550668	     -0.02350466	     -0.01173097	     23.97955793	     59.27323268	      0.00000000	      0.00000000	      0.00000000	      0.00000000	     -0.00698835	      0.13216065	     -0.00698835	      0.17489830	     -0.00698835	      0.13471575	     -0.00698835	      0.11787848	      0.05000000	      0.10000000	      0.05000000	      0.10000000
      0.25237619	   -131.31043714	   -480.13863232	    154.94716358	    588.93624117	     -0.00000000	      0.00000000	      0.00000000	      0.00000000	      0.00000000	      0.00000000	     -0.00000000	     -0.00000000	      0.00000000	      0.00000000	      0.00000000	      0.00000000	     44.75893459	   -236.26144697	      4.35693016	     -0.97408264	      2.12276655	     29.18516823	    -44.72458079	    285.37945884	      0.00316576	     -0.03942654	     -0.47164589	      0.07312175	     16.79769574	    -17.64176912	      0.04709880	      0.07532369	     -0.02351040	     -0.01173620	     24.00866247	     59.72916252	      0.00000000	      0.00000000	      0.00000000	      0.00000000	     -0.00705133	      0.13212300	     -0.00705133	      0.17493526	     -0.00705133	      0.13463159	     -0.00705133	      0.11776309	      0.05000000	      0.10000000	      0.05000000	      0.10000000
